HIERARCHY
ROOT Hips
{
	OFFSET 0.000000 0.000000 0.000000
	CHANNELS 6 Xposition Yposition Zposition Zrotation Yrotation Xrotation 
	JOINT LHipJoint
	{
		OFFSET 0.000000 0.000000 0.000000
		CHANNELS 3 Zrotation Yrotation Xrotation
		JOINT LeftUpLeg
		{
			OFFSET 1.363060 -1.794630 0.839290
			CHANNELS 3 Zrotation Yrotation Xrotation
			JOINT LeftLeg
			{
				OFFSET 2.448110 -6.726130 0.000000
				CHANNELS 3 Zrotation Yrotation Xrotation
				JOINT LeftFoot
				{
					OFFSET 2.562200 -7.039590 0.000000
					CHANNELS 3 Zrotation Yrotation Xrotation
					JOINT LeftToeBase
					{
						OFFSET 0.157640 -0.433110 2.322550
						CHANNELS 3 Zrotation Yrotation Xrotation
						End Site
						{
							OFFSET 0.000000 0.000000 0.000000
						}
					}
				}
			}
		}
	}
	JOINT RHipJoint
	{
		OFFSET 0.000000 0.000000 0.000000
		CHANNELS 3 Zrotation Yrotation Xrotation
		JOINT RightUpLeg
		{
			OFFSET -1.305520 -1.794630 0.839290
			CHANNELS 3 Zrotation Yrotation Xrotation
			JOINT RightLeg
			{
				OFFSET -2.542530 -6.985550 0.000000
				CHANNELS 3 Zrotation Yrotation Xrotation
				JOINT RightFoot
				{
					OFFSET -2.568260 -7.056230 0.000000
					CHANNELS 3 Zrotation Yrotation Xrotation
					JOINT RightToeBase
					{
						OFFSET -0.164730 -0.452590 2.363150
						CHANNELS 3 Zrotation Yrotation Xrotation
						End Site
						{
							OFFSET 0.000000 0.000000 0.000000
						}
					}
				}
			}
		}
	}
	JOINT LowerBack
	{
		OFFSET 0.000000 0.000000 0.000000
		CHANNELS 3 Zrotation Yrotation Xrotation
		JOINT Spine
		{
			OFFSET 0.028270 2.035590 -0.193380
			CHANNELS 3 Zrotation Yrotation Xrotation
			JOINT Spine1
			{
				OFFSET 0.056720 2.048850 -0.042750
				CHANNELS 3 Zrotation Yrotation Xrotation
				JOINT Neck
				{
					OFFSET 0.000000 0.000000 0.000000
					CHANNELS 3 Zrotation Yrotation Xrotation
					JOINT Neck1
					{
						OFFSET -0.054170 1.746240 0.172020
						CHANNELS 3 Zrotation Yrotation Xrotation
						JOINT Head
						{
							OFFSET 0.104070 1.761360 -0.123970
							CHANNELS 3 Zrotation Yrotation Xrotation
							End Site
							{
								OFFSET 0.000000 0.000000 0.000000
							}
						}
					}
				}
				JOINT LeftShoulder
				{
					OFFSET 0.000000 0.000000 0.000000
					CHANNELS 3 Zrotation Yrotation Xrotation
					JOINT LeftArm
					{
						OFFSET 3.362410 1.200890 -0.311210
						CHANNELS 3 Zrotation Yrotation Xrotation
						JOINT LeftForeArm
						{
							OFFSET 4.983000 -0.000000 -0.000000
							CHANNELS 3 Zrotation Yrotation Xrotation
							JOINT LeftHand
							{
								OFFSET 3.483560 -0.000000 -0.000000
								CHANNELS 3 Zrotation Yrotation Xrotation
								JOINT LeftFingerBase
								{
									OFFSET 0.000000 0.000000 0.000000
									CHANNELS 3 Zrotation Yrotation Xrotation
									JOINT LeftHandIndex1
									{
										OFFSET 0.715260 -0.000000 -0.000000
										CHANNELS 3 Zrotation Yrotation Xrotation
										End Site
										{
											OFFSET 0.000000 0.000000 0.000000
										}
									}
								}
								JOINT LThumb
								{
									OFFSET 0.000000 0.000000 0.000000
									CHANNELS 3 Zrotation Yrotation Xrotation
									End Site
									{
										OFFSET 0.000000 0.000000 0.000000
									}
								}
							}
						}
					}
				}
				JOINT RightShoulder
				{
					OFFSET 0.000000 0.000000 0.000000
					CHANNELS 3 Zrotation Yrotation Xrotation
					JOINT RightArm
					{
						OFFSET -3.136600 1.374050 -0.404650
						CHANNELS 3 Zrotation Yrotation Xrotation
						JOINT RightForeArm
						{
							OFFSET -5.241900 -0.000000 -0.000000
							CHANNELS 3 Zrotation Yrotation Xrotation
							JOINT RightHand
							{
								OFFSET -3.444170 -0.000000 -0.000000
								CHANNELS 3 Zrotation Yrotation Xrotation
								JOINT RightFingerBase
								{
									OFFSET 0.000000 0.000000 0.000000
									CHANNELS 3 Zrotation Yrotation Xrotation
									JOINT RightHandIndex1
									{
										OFFSET -0.622530 -0.000000 -0.000000
										CHANNELS 3 Zrotation Yrotation Xrotation
										End Site
										{
											OFFSET 0.000000 0.000000 0.000000
										}
									}
								}
								JOINT RThumb
								{
									OFFSET 0.000000 0.000000 0.000000
									CHANNELS 3 Zrotation Yrotation Xrotation
									End Site
									{
										OFFSET 0.000000 0.000000 0.000000
									}
								}
							}
						}
					}
				}
			}
		}
	}
}
MOTION
Frames: 4
Frame Time: 0.008333
10.199397 17.982140 26.127608 -177.073992 8.724697 -179.557059 1.371173 4.366902 2.229542 -19.762270 -23.332868 2.070078 -3.130742 6.434961 19.329822 -5.680994 19.392387 -11.632817 2.385300 -9.626200 -27.774600 -4.982901 -4.239910 0.842073 29.466162 19.962310 5.663048 3.295596 -4.262549 15.512252 5.621692 -23.459475 -12.398994 -0.051800 1.469000 -4.040200 2.311324 0.604196 5.691344 6.522129 1.133458 4.140719 -5.119903 0.311352 -13.793877 -10.320825 -1.102874 -15.445297 15.496060 -1.609575 12.725431 2.960900 -0.046600 4.291300 -2.138831 -10.342594 1.502231 -94.149938 4.760221 3.747884 27.455109 -28.574106 -7.813071 1.953147 -0.038883 -3.332704 -36.965247 -24.642566 18.052900 -7.125000 0.000000 0.000000 -36.980000 2.547700 46.833200 0.109676 10.432500 2.904812 88.197936 -8.802643 37.405132 -26.362070 29.483838 -7.694502 0.618817 -0.605060 15.486770 -18.672627 -45.626162 13.997900 7.125000 0.000000 0.000000 34.290000 -74.261400 -24.382700 
10.201947 17.979358 26.121580 -177.038685 8.335473 -179.561142 1.377112 4.370979 2.225001 -19.707847 -23.354235 2.003735 -3.107569 6.461642 19.370093 -5.801656 19.677428 -11.236945 2.858000 -10.461500 -30.484700 -4.980476 -4.250279 0.864188 29.505034 19.786140 5.728695 3.322785 -4.201687 15.389621 5.613207 -23.489587 -12.748259 -0.021800 0.953600 -2.621000 2.455844 0.502271 5.516329 6.528834 0.995078 4.327600 -5.235799 0.242849 -13.714113 -10.452836 -1.095903 -15.413246 15.578140 -1.609150 12.421333 2.985500 -0.074800 4.219000 -2.215317 -10.365497 1.431260 -94.480083 5.628071 8.015022 25.031823 -25.371268 -6.500850 1.655542 0.690085 10.028455 1.534637 -39.669486 -0.034400 -7.125000 0.000000 0.000000 -17.985200 -8.966600 21.575000 0.138351 10.401361 2.898992 88.037295 -8.818850 37.578594 -26.329691 29.447785 -7.711124 0.651220 -0.577885 15.352666 -16.477174 -46.891590 12.657500 7.125000 0.000000 0.000000 40.136500 -74.389200 -28.934000 
10.206120 17.985502 26.118218 -176.989816 8.497248 -179.283174 1.361818 4.336791 2.183944 -19.575115 -23.422753 1.788514 -3.118170 6.462230 19.334448 -5.870438 19.860409 -11.303173 2.897000 -10.526400 -30.698800 -4.967300 -4.227745 0.854065 29.461201 19.902464 5.522666 3.342577 -4.169024 15.235249 5.626904 -23.495752 -12.475466 -0.031100 1.137900 -3.128400 2.459664 0.569801 5.260800 6.577793 1.083557 4.184690 -5.263306 0.281363 -13.519900 -10.464486 -1.096206 -15.410639 15.635586 -1.614458 12.371300 2.999800 -0.078400 4.213900 -2.230701 -10.384011 1.443715 -94.351131 5.729433 8.116514 24.718969 -25.004900 -6.378684 1.696928 0.682466 10.572202 0.906782 -40.109869 0.399000 -7.125000 0.000000 0.000000 -18.327400 -9.328200 22.123700 0.136222 10.406813 2.909117 87.932387 -8.783347 37.689202 -26.255579 29.369891 -7.696305 0.670847 -0.564180 15.418394 -14.993122 -47.663692 11.704900 7.125000 0.000000 0.000000 43.872300 -74.367500 -31.835900 
10.211917 17.988284 26.113697 -176.938711 8.552077 -179.179026 1.356237 4.332392 2.174302 -19.487906 -23.540357 1.740751 -3.126677 6.454890 19.304294 -5.898832 19.934087 -11.382285 2.886500 -10.509000 -30.641400 -4.963621 -4.225701 0.859093 29.507796 19.974711 5.513378 3.358746 -4.132261 15.112359 5.669193 -23.616679 -12.297768 -0.038200 1.262100 -3.470300 2.456822 0.572625 5.062285 6.622278 1.076520 4.221774 -5.267748 0.281206 -13.396636 -10.546265 -1.097943 -15.428640 15.822811 -1.627369 12.376249 3.061400 -0.075400 4.225600 -2.229363 -10.401209 1.438715 -94.244037 5.945789 9.102167 24.746503 -24.920796 -6.311051 1.681013 0.653633 11.156565 1.878262 -38.267145 -0.242100 -7.125000 0.000000 0.000000 -17.757500 -7.666500 20.933700 0.128990 10.408181 2.903497 87.836390 -8.655339 37.790577 -26.102894 29.204824 -7.630152 0.685038 -0.559591 15.616270 -13.966976 -48.046820 11.009400 7.125000 0.000000 0.000000 45.999900 -74.239800 -33.411100 
